HIERARCHY
ROOT Hips
{
	OFFSET 0.000000 88.474243 0.000000
	CHANNELS 6 Xposition Yposition Zposition Zrotation Yrotation Xrotation 
	JOINT Hips_Spine
	{
		OFFSET 0.000000 0.000000 0.000000
		CHANNELS 3 Zrotation Yrotation Xrotation
		JOINT Spine
		{
			OFFSET 0.005100 8.711998 -0.691000
			CHANNELS 3 Zrotation Yrotation Xrotation
			JOINT Spine1
			{
				OFFSET -0.009200 8.660301 -1.275000
				CHANNELS 3 Zrotation Yrotation Xrotation
				JOINT Spine2
				{
					OFFSET 0.006300 9.852501 -1.857000
					CHANNELS 3 Zrotation Yrotation Xrotation
					JOINT Spine2_Neck
					{
						OFFSET 0.000000 0.000000 0.000000
						CHANNELS 3 Zrotation Yrotation Xrotation
						JOINT Neck
						{
							OFFSET 0.016300 11.420799 -0.263300
							CHANNELS 3 Zrotation Yrotation Xrotation
							End Site #name: Head
							{
								OFFSET -0.019200 9.262405 2.362500
							}
						}
					}
					JOINT Spine2_LeftShoulder
					{
						OFFSET 0.000000 0.000000 0.000000
						CHANNELS 3 Zrotation Yrotation Xrotation
						JOINT LeftShoulder
						{
							OFFSET 5.616900 6.732201 -0.345700
							CHANNELS 3 Zrotation Yrotation Xrotation
							JOINT LeftArm
							{
								OFFSET 10.664888 -0.183372 -2.440700
								CHANNELS 3 Zrotation Yrotation Xrotation
								JOINT LeftForeArm
								{
									OFFSET 27.459126 0.000000 0.000000
									CHANNELS 3 Zrotation Yrotation Xrotation
									End Site #name: LeftHand
									{
										OFFSET 21.306858 0.000000 0.000000
									}
								}
							}
						}
					}
					JOINT Spine2_RightShoulder
					{
						OFFSET 0.000000 0.000000 0.000000
						CHANNELS 3 Zrotation Yrotation Xrotation
						JOINT RightShoulder
						{
							OFFSET -5.580300 6.737503 -0.344400
							CHANNELS 3 Zrotation Yrotation Xrotation
							JOINT RightArm
							{
								OFFSET -10.679335 -0.188484 -2.383900
								CHANNELS 3 Zrotation Yrotation Xrotation
								JOINT RightForeArm
								{
									OFFSET -27.503529 0.000000 0.000000
									CHANNELS 3 Zrotation Yrotation Xrotation
									End Site #name: RightHand
									{
										OFFSET -21.306808 0.000000 0.000000
									}
								}
							}
						}
					}
				}
			}
		}
	}
	JOINT Hips_LeftUpLeg
	{
		OFFSET 0.000000 0.000000 0.000000
		CHANNELS 3 Zrotation Yrotation Xrotation
		JOINT LeftUpLeg
		{
			OFFSET 6.857700 -6.739601 0.312100
			CHANNELS 3 Zrotation Yrotation Xrotation
			JOINT LeftLeg
			{
				OFFSET -0.367590 -34.731552 -4.572400
				CHANNELS 3 Zrotation Yrotation Xrotation
				End Site #name: LeftFoot
				{
					OFFSET 0.367590 -34.656704 -6.067400
				}
			}
		}
	}
	JOINT Hips_RightUpLeg
	{
		OFFSET 0.000000 0.000000 0.000000
		CHANNELS 3 Zrotation Yrotation Xrotation
		JOINT RightUpLeg
		{
			OFFSET -6.876100 -6.733299 0.301000
			CHANNELS 3 Zrotation Yrotation Xrotation
			JOINT RightLeg
			{
				OFFSET 0.347353 -34.795158 -4.515900
				CHANNELS 3 Zrotation Yrotation Xrotation
				End Site #name: RightFoot
				{
					OFFSET -0.347353 -34.589367 -6.070300
				}
			}
		}
	}
}
MOTION
Frames: 15
Frame Time: 0.041667
0.175065 0.049502 -0.020569 1.381403 18.021513 -6.109679 -0.000000 0.000000 0.000000 0.037927 -1.725046 -0.211490 0.306835 -1.444305 -1.708041 0.000000 0.000000 0.000000 0.040800 -0.899272 -1.994311 3.835161 0.507583 -4.772771 0.423874 -1.708424 -2.729427 -16.096444 -4.906011 2.058448 -47.454378 -1.542034 8.310140 -0.493245 -33.997535 6.340701 0.368674 -1.215251 -1.057439 12.923544 10.734605 4.549278 57.531100 -7.546468 -6.057517 -0.796725 52.622251 0.552841 0.000000 0.000000 0.000000 -10.433733 19.588619 -4.978537 -1.739605 -2.936208 22.974466 0.000000 0.000000 0.000000 -5.089539 17.386029 -9.465666 7.910947 2.420758 -1.703176 
0.731748 -0.023732 0.105389 3.406052 17.092950 -6.479630 -0.000000 0.000000 0.000000 -2.001491 -2.217356 -0.872192 0.538605 -1.640676 -1.956325 0.000000 0.000000 0.000000 0.095588 -0.817385 -3.168080 4.230239 -1.644594 -2.609570 -0.160097 -1.601729 -3.947070 -21.050767 -2.214791 0.974418 -45.585264 -0.916400 -4.310601 -0.898296 -28.100378 4.181752 0.053385 -1.534467 -1.254467 12.947818 8.072643 1.816027 60.689109 -2.372989 -7.999932 -0.866743 54.554641 -1.072621 0.000000 0.000000 -0.000000 -13.528573 17.055751 -1.981125 -0.839720 0.694267 20.612507 0.000000 0.000000 0.000000 -9.226593 20.377424 -10.295720 8.411017 2.227255 0.090496 
1.031334 -0.052162 0.105316 4.983265 14.171692 -6.618191 -0.000000 0.000000 -0.000000 -3.353518 -3.430284 -0.640027 0.492091 -1.470941 -2.044717 0.000000 0.000000 0.000000 0.539590 -1.298876 -3.138906 3.606640 -2.740200 -2.794815 -0.525449 -1.613765 -3.578333 -24.078876 -1.462474 2.653490 -46.322387 5.122568 -8.321461 -1.378628 -28.565724 4.099953 0.105874 -1.573001 -1.211431 12.052749 7.173087 2.006102 59.960039 -0.634506 -6.265873 -0.372553 48.892595 -0.828461 0.000000 0.000000 -0.000000 -15.384152 16.806930 0.161261 -1.133508 1.225330 18.595372 0.000000 0.000000 0.000000 -11.767385 21.939791 -13.828033 7.798869 0.444426 6.646091 
1.287336 -0.069948 0.057676 5.741535 12.170377 -6.538455 -0.000000 0.000000 -0.000000 -4.632039 -3.162248 0.271089 0.471655 -1.434891 -1.996024 0.000000 0.000000 0.000000 0.729521 -1.462632 -3.067962 3.402709 -4.213824 -2.085798 -0.508779 -1.651654 -3.402104 -25.115746 -1.330524 4.194141 -45.492263 6.977370 -8.170824 -1.001029 -27.398804 6.402450 0.179816 -1.591992 -1.155788 10.744433 7.264587 1.901479 59.384904 1.705366 -4.890565 -0.212181 49.141764 -0.700670 0.000000 0.000000 -0.000000 -16.315368 17.038578 0.745360 -1.602690 1.641610 17.895990 0.000000 0.000000 0.000000 -13.666926 21.734633 -17.362721 7.290193 -0.181797 14.191840 
1.595663 -0.071062 -0.001350 6.018246 11.735750 -6.279561 -0.000000 0.000000 -0.000000 -5.489369 -2.631245 0.358902 0.359138 -1.399725 -2.026827 0.000000 0.000000 0.000000 0.490659 -1.575577 -3.227116 3.275848 -5.242540 -1.830416 -0.572123 -1.746777 -3.415174 -26.623557 -0.958439 5.317955 -42.958730 7.638626 -8.328672 -0.445420 -23.820340 8.360197 0.137099 -1.627625 -1.194632 8.976889 7.475142 1.746691 59.932682 2.817948 -4.571795 -0.162781 50.893015 -0.808913 0.000000 0.000000 -0.000000 -16.848395 17.285546 0.854748 -1.921182 1.886678 17.669090 0.000000 0.000000 0.000000 -15.057135 20.923881 -19.568140 7.014965 -0.095486 19.438607 
1.938414 -0.061315 -0.063657 6.060867 11.473694 -6.132359 -0.000000 0.000000 -0.000000 -5.685828 -2.233542 -0.253117 0.153450 -1.380764 -2.106961 0.000000 0.000000 0.000000 0.096950 -1.650803 -3.440676 3.034793 -5.820047 -1.745670 -0.772776 -1.834220 -3.581946 -28.409852 -0.386417 5.963878 -40.754999 7.708079 -7.886664 0.045240 -19.702822 9.634355 0.002423 -1.701531 -1.344663 7.302322 7.598821 1.571877 61.455035 2.479473 -5.251133 -0.014758 51.135696 -0.821271 0.000000 0.000000 -0.000000 -17.214338 17.580056 0.724850 -1.827770 2.184575 17.499933 0.000000 0.000000 0.000000 -15.892479 19.987432 -20.471656 6.855304 0.337952 22.526989 
2.296522 -0.043367 -0.123828 5.928543 11.608977 -6.056427 -0.000000 0.000000 -0.000000 -5.440244 -1.942469 -1.048692 -0.104164 -1.339271 -2.287816 0.000000 0.000000 0.000000 -0.234380 -1.665655 -3.589810 2.787583 -6.066427 -1.641745 -1.050999 -1.840625 -3.805664 -30.338716 0.497554 6.176462 -38.916955 7.941215 -7.310022 0.434889 -15.323770 10.129643 -0.300820 -1.693862 -1.498001 6.333124 7.582014 1.449256 63.168333 1.815064 -7.062093 0.198727 50.442196 -0.768600 0.000000 0.000000 -0.000000 -17.449418 17.872139 0.356571 -1.641747 2.427653 17.502243 0.000000 0.000000 0.000000 -16.428363 18.965623 -20.594346 6.694240 0.705782 24.092539 
2.645681 -0.015077 -0.175336 5.684367 12.328837 -5.957732 -0.000000 0.000000 -0.000000 -5.317839 -1.668921 -1.719674 -0.318743 -1.238865 -2.472204 0.000000 0.000000 0.000000 -0.465835 -1.643892 -3.708999 2.566559 -6.100037 -1.424074 -1.303120 -1.788937 -3.993276 -31.797626 1.243020 6.138575 -37.657768 8.146197 -7.041385 0.642749 -12.323336 9.947324 -0.571370 -1.636287 -1.615699 5.842562 7.527682 1.419716 65.234000 0.948154 -8.601344 0.414532 49.432090 -0.747748 0.000000 0.000000 -0.000000 -17.508991 17.983133 -0.100786 -1.474792 2.650846 17.548001 0.000000 0.000000 0.000000 -16.702486 17.735914 -20.229336 6.281105 0.744080 24.586960 
2.960035 0.023913 -0.213441 5.324671 13.538070 -5.856556 -0.000000 0.000000 -0.000000 -5.505450 -1.331747 -2.010461 -0.454305 -1.113947 -2.616950 0.000000 0.000000 0.000000 -0.629703 -1.584426 -3.815803 2.507867 -5.793171 -1.219372 -1.471227 -1.709843 -4.172529 -32.571869 1.664120 6.075736 -36.991598 8.373796 -7.106324 0.643016 -11.150422 9.535745 -0.810904 -1.531384 -1.696195 5.578327 7.385724 1.415950 67.396462 0.444034 -9.178191 0.580418 47.725491 -0.669676 0.000000 0.000000 -0.000000 -17.369012 17.927848 -0.551142 -1.249713 2.859889 17.633106 0.000000 0.000000 0.000000 -16.694847 16.262710 -19.534694 5.789514 0.550870 24.293808 
3.234821 0.073423 -0.240189 4.873257 14.895391 -5.749783 -0.000000 0.000000 -0.000000 -5.956675 -1.001185 -2.015698 -0.558748 -0.976331 -2.790265 0.000000 0.000000 0.000000 -0.769906 -1.507696 -3.921669 2.571699 -5.289834 -1.066529 -1.588347 -1.611101 -4.336525 -32.794586 1.904216 6.033560 -37.053060 8.548453 -7.301143 0.581716 -11.077373 9.147394 -1.025522 -1.395655 -1.768149 5.256044 7.214006 1.389847 69.003838 0.524675 -8.890468 0.718004 45.945970 -0.610191 0.000000 0.000000 -0.000000 -17.096739 17.783089 -1.055280 -1.000615 3.073964 17.762098 0.000000 0.000000 0.000000 -16.457668 14.446468 -18.589483 5.261911 0.351796 23.396962 
3.466285 0.132396 -0.255057 4.380619 16.210992 -5.621654 -0.000000 0.000000 -0.000000 -6.528250 -0.654253 -1.827493 -0.659080 -0.833428 -2.963572 0.000000 0.000000 0.000000 -0.921327 -1.412858 -4.014162 2.701826 -4.692617 -0.996167 -1.686466 -1.513626 -4.506340 -32.638835 2.067045 5.983477 -37.442988 8.633579 -7.688909 0.500201 -11.731317 8.881914 -1.236106 -1.246471 -1.823702 5.025493 7.057527 1.353988 70.021978 0.974888 -8.286248 0.808998 44.428293 -0.563461 0.000000 0.000000 -0.000000 -16.772354 17.596675 -1.518380 -0.773926 3.315024 17.803577 0.000000 0.000000 0.000000 -16.105745 12.361281 -17.524611 4.687840 0.058266 22.065434 
3.650236 0.198437 -0.259437 3.907206 17.372263 -5.502183 -0.000000 0.000000 -0.000000 -7.111978 -0.350962 -1.553615 -0.766524 -0.702846 -3.133913 0.000000 0.000000 0.000000 -1.088121 -1.322348 -4.103786 2.845585 -4.078764 -1.056351 -1.788381 -1.414686 -4.661253 -32.267388 2.177184 5.959488 -38.128896 8.413030 -7.823776 0.452613 -12.550024 8.725897 -1.449350 -1.102976 -1.867822 4.934276 6.882998 1.312465 70.350666 1.440675 -7.825955 0.843950 43.536636 -0.543271 0.000000 0.000000 -0.000000 -16.430153 17.435527 -1.913590 -0.651883 3.534186 17.735551 0.000000 0.000000 0.000000 -15.730670 10.224195 -16.458609 4.189246 -0.189522 20.461110 
3.781199 0.267701 -0.256770 3.530561 18.098260 -5.365159 -0.000000 0.000000 -0.000000 -7.582091 -0.195411 -1.256847 -0.865585 -0.594110 -3.299133 0.000000 0.000000 0.000000 -1.251506 -1.244621 -4.184197 3.003019 -3.557847 -1.247329 -1.892399 -1.317323 -4.793793 -31.793029 2.216225 5.945260 -38.811292 7.910776 -7.633477 0.421736 -13.236310 8.634992 -1.647253 -0.965225 -1.906917 4.985623 6.731490 1.267551 70.109839 1.668675 -7.562754 0.839410 43.124386 -0.548840 0.000000 0.000000 -0.000000 -16.067169 17.332214 -2.213309 -0.652402 3.747366 17.605707 0.000000 0.000000 0.000000 -15.361898 8.299144 -15.489100 3.705921 -0.675988 18.798873 
3.862139 0.335515 -0.253298 3.255742 18.364414 -5.236006 -0.000000 0.000000 -0.000000 -7.914491 -0.078044 -1.043175 -0.924825 -0.524049 -3.469503 0.000000 0.000000 0.000000 -1.378991 -1.187410 -4.261264 3.167464 -3.163922 -1.470026 -1.975230 -1.250076 -4.916567 -31.217098 2.192985 5.941747 -39.373196 7.256717 -7.125598 0.403339 -13.741655 8.548240 -1.798195 -0.858169 -1.953046 5.137622 6.596380 1.223174 69.510631 1.697515 -7.673602 0.811647 43.133028 -0.561001 0.000000 0.000000 -0.000000 -15.731417 17.378467 -2.389714 -0.673621 4.039911 17.402770 0.000000 0.000000 0.000000 -15.007444 6.776516 -14.573784 3.315592 -1.171487 16.922574 
3.894828 0.398695 -0.252175 3.089431 18.215309 -5.102774 -0.000000 0.000000 -0.000000 -8.118767 -0.019758 -0.897523 -0.927091 -0.498941 -3.653695 0.000000 0.000000 0.000000 -1.437440 -1.154170 -4.348282 3.364350 -2.904769 -1.673576 -2.017193 -1.226363 -5.039567 -30.590077 2.132113 6.013321 -39.810424 6.620764 -6.418669 0.391670 -14.000330 8.465441 -1.873216 -0.794765 -2.013365 5.316810 6.469247 1.179854 68.785824 1.551437 -8.003803 0.775170 43.468942 -0.572620 0.000000 0.000000 -0.000000 -15.424171 17.558446 -2.480946 -0.805936 4.194515 17.214420 0.000000 0.000000 0.000000 -14.718087 5.680612 -13.854699 3.012928 -1.721123 15.196668 
